<svg xmlns="http://www.w3.org/2000/svg" xmlns:xlink="http://www.w3.org/1999/xlink" width="1440" height="409" version="1.1" style=""><rect id="backgroundrect" width="100%" height="100%" x="0" y="0" fill="none" stroke="none"/>
    <defs>
        <linearGradient x1="100%" y1="91.5371415%" x2="0%" y2="0%" id="linearGradient-1">
            <stop stop-color="#009EBE" offset="0%"/>
            <stop stop-color="#1EB5E0" offset="100%"/>
        </linearGradient>
    </defs>
    
<g class="currentLayer" style=""><title>Layer 1</title><g id="1.00-Homepage" stroke="none" stroke-width="1" fill="#8ae98a" fill-rule="evenodd" class="" fill-opacity="1">
        <g id="1.00-Homepage-–-0-Idle" fill="#8ae98a" fill-opacity="1">
            <g id="Hero" fill="#8ae98a" fill-opacity="1">
                <g id="waves-overlay" fill="#8ae98a" fill-opacity="1">
                    <path d="M1.574803113937378,45.37128610000002 C1.574803113937378,45.37128610000002 265.5748031139374,5.371286110000028 456.5748031139374,167.371286 C647.5748031139374,329.371286 728.5748031139374,101.371286 874.5748031139374,102.371286 C1020.5748031139374,103.371286 1052.5748031139374,274.371286 1210.5748031139374,274.371286 C1368.5748031139374,274.371286 1331.5748031139374,41.37128610000002 1546.5748031139374,45.37128610000002 C1761.5748031139374,49.37128610000002 1585.5748031139374,541.371286 1585.5748031139374,541.371286 L-64.42519688606262,383.371286 L1.574803113937378,45.37128610000002 z" id="Path-2" opacity="0.200000003" fill="#8ae98a" fill-opacity="1"/>
                    <path d="M-44.06359728606262,8.552082359999986 C-4.728243986062623,-24.907450600000004 156.29800211393737,30.104164700000013 242.9364031139374,206.552082 C329.5748031139374,383 398.9364031139374,317.552082 498.5748031139374,241 C598.2132031139374,164.447918 679.7632421139374,188.550912 795.5748031139374,284 C886.5748031139374,359 953.5748031139374,388 1067.5748031139374,294 C1181.5748031139374,200 1281.5748031139374,161 1462.5748031139374,359 C1643.5748031139374,557 1419.9364031139373,502.552082 1419.9364031139373,502.552082 L1.9364027139373832,411.552082 C1.9364027139373832,411.552082 -83.39895058606263,42.01161530000002 -44.06359728606262,8.552082359999986 z" id="Path" opacity="0.699999988" fill="#8ae98a" fill-opacity="1"/>
                    <path d="M135.57480311393738,337.041604 C135.57480311393738,337.041604 273.5748031139374,155.041604 506.5748031139374,246.041604 C739.5748031139374,337.041604 843.5748031139374,236.041604 890.5748031139374,183.041604 C937.5748031139374,130.041604 1162.5748031139374,-78.95839639999997 1414.5748031139374,157.041604 C1666.5748031139374,393.041604 1336.5748031139374,512.041604 1336.5748031139374,512.041604 L107.57480311393738,379.041604 L135.57480311393738,337.041604 z" id="Path" opacity="0.300000012" transform="" fill="#8ae98a" fill-opacity="1"/>
                </g>
            </g>
        </g>
    </g></g></svg>